<?xml version="1.0" standalone="no"?><!DOCTYPE svg PUBLIC "-//W3C//DTD SVG 1.1//EN" "http://www.w3.org/Graphics/SVG/1.1/DTD/svg11.dtd"><svg t="1577365903920" class="icon" viewBox="0 0 1060 1024" version="1.1" xmlns="http://www.w3.org/2000/svg" p-id="10094" xmlns:xlink="http://www.w3.org/1999/xlink" width="132.5" height="128"><defs><style type="text/css"></style></defs><path d="M318.500571 21.942857a23.771429 23.771429 0 1 1 0 47.542857H133.339429c-33.024 0-59.977143 26.989714-59.977143 60.050286v187.026286a23.771429 23.771429 0 1 1-47.542857 0V129.536A107.702857 107.702857 0 0 1 133.339429 21.942857H318.537143z m413.001143 47.542857a23.771429 23.771429 0 1 1 0-47.542857h185.124572a107.702857 107.702857 0 0 1 107.556571 107.593143v187.026286a23.771429 23.771429 0 1 1-47.542857 0V129.536c0-33.060571-26.953143-60.050286-59.977143-60.050286h-185.161143z m0 950.857143a23.771429 23.771429 0 1 1 0-47.542857h185.124572c33.060571 0 60.013714-26.953143 60.013714-60.050286v-187.026285a23.771429 23.771429 0 1 1 47.542857 0v187.026285a107.702857 107.702857 0 0 1-107.52 107.593143h-185.161143zM318.537143 972.8a23.771429 23.771429 0 1 1 0 47.542857H133.339429a107.702857 107.702857 0 0 1-107.52-107.593143v-187.026285a23.771429 23.771429 0 1 1 47.542857 0v187.026285c0 33.097143 26.953143 60.050286 59.977143 60.050286H318.537143z m543.817143-422.656c0 6.4-5.814857 11.593143-12.946286 11.593143H200.630857c-7.168 0-12.946286-5.193143-12.946286-11.593143 0-6.4 5.778286-11.593143 12.946286-11.593143h648.777143c7.094857 0 12.909714 5.193143 12.909714 11.593143z m-146.176 185.673143v-139.264h67.474285v139.264h-67.474285z m-146.176 0v-139.264h101.193143v139.264h-101.193143z m-101.193143 0v-139.264h67.474286v139.264h-67.474286z m-78.701714 0v-139.264h33.718857v139.264h-33.718857z m-112.457143 0v-139.264h67.474285v139.264H277.613714z m438.528-220.489143v-208.822857h67.474285v208.822857h-67.474285z m-146.176 0v-208.822857h101.193143v208.822857h-101.193143z m-101.193143 0v-208.822857h67.474286v208.822857h-67.474286z m-78.701714 0v-208.822857h33.718857v208.822857h-33.718857z m-112.457143 0v-208.822857h67.474285v208.822857H277.613714z" p-id="10095" fill="#1DA57A"></path></svg>